<?xml version="1.0" encoding="utf-8"?>
<!-- Generator: Adobe Illustrator 26.0.3, SVG Export Plug-In . SVG Version: 6.00 Build 0)  -->
<svg version="1.1" id="Layer_1" xmlns="http://www.w3.org/2000/svg" xmlns:xlink="http://www.w3.org/1999/xlink" x="0px" y="0px"
	 viewBox="0 0 469.1 469.1" style="enable-background:new 0 0 469.1 469.1;" xml:space="preserve">
<style type="text/css">
	.st0{fill:#FFFFFF;}
	.st1{clip-path:url(#SVGID_00000157994026513499431470000004815397734173333927_);}
	.st2{clip-path:url(#SVGID_00000005258758280109199740000012008695426829491873_);}
	.st3{fill:#8E6D46;}
</style>
<path class="st0" d="M237.7,406.1c-54.2,0-97.5-29.3-97.5-29.3l-66.5,21.7l21.6-64.4c0,0-34.5-47.8-34.5-105
	c0-97.7,79.2-177,177-177s177,79.2,177,177S335.5,406.1,237.7,406.1 M237.7,18.4C121.3,18.4,27,112.8,27,229.1
	c0,57.8,30.6,109.4,30.6,109.4L20.8,450.7l115.4-36.9c0,0,42.9,26,101.5,26c116.4,0,210.7-94.3,210.7-210.7S354.1,18.4,237.7,18.4"
	/>
<g>
	<defs>
		<rect id="SVGID_1_" x="60.1" y="52.1" width="355" height="355"/>
	</defs>
	<clipPath id="SVGID_00000102524038462336800890000015017957842004875960_">
		<use xlink:href="#SVGID_1_"  style="overflow:visible;"/>
	</clipPath>
	<g style="clip-path:url(#SVGID_00000102524038462336800890000015017957842004875960_);">
		<g>
			<defs>
				<path id="SVGID_00000163765642025393889680000007395380577098247355_" d="M60.7,229.1c0,57.2,34.5,105,34.5,105l-21.6,64.4
					l66.6-21.7c0,0,43.4,29.3,97.5,29.3c97.7,0,177-79.2,177-177c0-97.7-79.2-177-177-177C140,52.2,60.7,131.4,60.7,229.1
					 M284.6,327.6c-12.6-3.5-54.3-14.4-81.4-39.8c-27.2-25.3-49.2-52-58.2-71.7c-9-19.7-8.5-31.3-8-36.8s3.4-31,20.4-41.9
					c0,0,5.7-3.6,8.7-3.6h16.6c0,0,4.4,0.8,6.5,5.4c2,4.6,16,37.5,17.1,40.1c1,2.5,3.8,8.8-0.6,14.4s-13.5,16.1-13.5,16.1
					s-3.6,3.2-0.5,8.4c3.1,5.2,14.1,22.2,28.5,35.1c14.4,12.9,32,22.4,40.8,25.3c8.8,2.9,10.7-1,14.1-5.3
					c3.4-4.3,13.8-17.6,13.8-17.6s3.6-5.3,10.7-2.1c7.1,3.2,41.6,20,41.6,20s4.2,0.7,4.4,5.4c0.2,4.7,3.1,18.7-9.4,32.2
					c-10.2,11-29.8,17.2-43.5,17.2C289.7,328.5,286.9,328.2,284.6,327.6"/>
			</defs>
			<use xlink:href="#SVGID_00000163765642025393889680000007395380577098247355_"  style="overflow:visible;fill:#8E6D46;"/>
			<clipPath id="SVGID_00000105408615263704438500000007418488070093147555_">
				<use xlink:href="#SVGID_00000163765642025393889680000007395380577098247355_"  style="overflow:visible;"/>
			</clipPath>
			<g style="clip-path:url(#SVGID_00000105408615263704438500000007418488070093147555_);">
				<path class="st3" d="M391,494.6L-27.8,382.4L84.4-36.3L503.2,75.9L391,494.6z"/>
			</g>
		</g>
	</g>
</g>
<path class="st0" d="M345.7,279.1c0.2,4.7,3.1,18.7-9.4,32.2c-12.5,13.5-39.1,19.8-51.7,16.2c-12.6-3.5-54.3-14.4-81.4-39.8
	c-27.2-25.3-49.2-52-58.2-71.7c-9-19.7-8.5-31.3-8-36.8s3.4-31,20.4-41.9c0,0,5.7-3.6,8.7-3.6h16.6c0,0,4.4,0.8,6.5,5.4
	c2,4.6,16,37.5,17.1,40c1,2.5,3.8,8.8-0.6,14.4s-13.5,16.1-13.5,16.1s-3.6,3.2-0.5,8.4c3.1,5.2,14.1,22.2,28.5,35.1
	c14.4,12.9,32,22.4,40.8,25.3s10.7-1,14.1-5.3c3.4-4.3,13.8-17.6,13.8-17.6s3.6-5.3,10.7-2.1c7.1,3.2,41.6,20,41.6,20
	S345.5,274.4,345.7,279.1"/>
</svg>
